HIERARCHY
ROOT Hips
{
	OFFSET 0.00 0.00 0.00
	CHANNELS 6 Xposition Yposition Zposition Xrotation Yrotation Zrotation
	JOINT Spine
	{
		OFFSET 0.00000 7.50895 0.00000
		CHANNELS 3 Xrotation Yrotation Zrotation
		JOINT Head
		{
			OFFSET 0.00000 13.86115 0.00000
			CHANNELS 3 Xrotation Yrotation Zrotation
			End Site
			{
				OFFSET 0.00000 4.52755 0.00000
			}
		}
		JOINT LeftShoulder
		{
			OFFSET 0.00000 8.20478 0.00000
			CHANNELS 3 Xrotation Yrotation Zrotation
			JOINT LeftArm
			{
				OFFSET 6.63596 0.00000 0.00000
				CHANNELS 3 Xrotation Yrotation Zrotation
				JOINT LeftForeArm
				{
					OFFSET 10.27422 0.00000 0.00000
					CHANNELS 3 Yrotation Zrotation Xrotation
					JOINT LeftHand
					{
						OFFSET 8.52215 0.00000 0.00000
						CHANNELS 3 Xrotation Yrotation Zrotation
						JOINT LeftHandThumb1
						{
							OFFSET 0.00000 0.00000 0.00000
							CHANNELS 3 Xrotation Zrotation Yrotation
							End Site
							{
								OFFSET 0.00000 0.00000 3.93700
							}
						}
						End Site
						{
							OFFSET 3.93700 0.00000 0.00000
						}
					}
				}
			}
		}
		JOINT RightShoulder
		{
			OFFSET 0.00000 8.20478 0.00000
			CHANNELS 3 Xrotation Yrotation Zrotation
			JOINT RightArm
			{
				OFFSET -6.63596 0.00000 0.00000
				CHANNELS 3 Xrotation Yrotation Zrotation
				JOINT RightForeArm
				{
					OFFSET -10.27422 0.00000 0.00000
					CHANNELS 3 Yrotation Zrotation Xrotation
					JOINT RightHand
					{
						OFFSET -8.52215 0.00000 0.00000
						CHANNELS 3 Xrotation Yrotation Zrotation
						JOINT RightHandThumb1
						{
							OFFSET 0.00000 0.00000 0.00000
							CHANNELS 3 Xrotation Zrotation Yrotation
							End Site
							{
								OFFSET 0.00000 0.00000 3.93700
							}
						}
						End Site
						{
							OFFSET -3.93700 0.00000 0.00000
						}
					}
				}
			}
		}
	}
	JOINT LeftUpLeg
	{
		OFFSET 3.00056 0.00000 0.00000
		CHANNELS 3 Xrotation Yrotation Zrotation
		JOINT LeftLeg
		{
			OFFSET 0.00000 -16.49085 0.00000
			CHANNELS 3 Xrotation Yrotation Zrotation
			JOINT LeftFoot
			{
				OFFSET 0.00000 -14.55658 0.00000
				CHANNELS 3 Xrotation Yrotation Zrotation
				JOINT LeftToeBase
				{
					OFFSET 0.00000 -1.25038 4.66650
					CHANNELS 3 Xrotation Yrotation Zrotation
					End Site
					{
						OFFSET 0.00000 0.00000 2.95275
					}
				}
			}
		}
	}
	JOINT RightUpLeg
	{
		OFFSET -3.00056 0.00000 0.00000
		CHANNELS 3 Xrotation Yrotation Zrotation
		JOINT RightLeg
		{
			OFFSET 0.00000 -16.49085 0.00000
			CHANNELS 3 Xrotation Yrotation Zrotation
			JOINT RightFoot
			{
				OFFSET 0.00000 -14.55658 0.00000
				CHANNELS 3 Xrotation Yrotation Zrotation
				JOINT RightToeBase
				{
					OFFSET 0.00000 -1.25038 4.66650
					CHANNELS 3 Xrotation Yrotation Zrotation
					End Site
					{
						OFFSET 0.00000 0.00000 2.95275
					}
				}
			}
		}
	}
}
MOTION
Frames: 14
Frame Time: 0.008333
 -7.3105 33.3808 -3.6040 -6.0781 22.3986 37.5700 -13.4387 -20.7077 -43.5654 6.0728 -4.8652 17.6935 -18.6720 -17.9062 27.5652 -104.0095 18.7115 -9.5094 -46.0204 -0.0000 -13.8915 8.2223 12.4165 -33.9028 33.1476 -0.0000 26.2537 -25.7823 -3.2765 -27.6843 -1.3762 -10.8109 15.8550 9.6444 -0.0000 22.8140 1.5125 -7.9809 10.7680 32.8623 0.0000 -24.3270 -136.7930 -9.0276 45.7358 3.9113 -0.0000 -0.0000 46.1023 17.0155 -20.5618 11.1771 0.0000 -0.0000 -5.3349 -0.8644 -27.9924 33.3924 -0.0000 -0.0000 -27.6139 -23.7335 -25.6472 0.4735 0.0000 -0.0000
 -7.3172 33.3760 -3.6119 -6.0868 22.4362 37.5732 -13.3982 -20.6727 -43.5521 6.0735 -4.8489 17.6439 -18.6862 -17.9069 27.5695 -104.0489 18.6958 -9.5285 -46.0240 -0.0000 -13.7796 8.2308 12.5753 -33.5992 33.1476 -0.0000 26.2537 -25.8059 -3.2277 -27.6504 -1.4771 -10.8863 15.7803 9.7083 -0.0000 22.9303 1.4888 -7.9189 10.6835 32.8623 0.0000 -24.3270 -136.8026 -9.0549 45.7618 3.9187 -0.0000 -0.0000 46.1311 16.9737 -20.3462 11.0219 -0.0000 -0.0000 -5.3573 -0.7966 -27.9628 33.4718 0.0000 -0.0000 -27.6317 -23.8164 -25.6712 0.5024 -0.0000 -0.0000
 -7.3256 33.3711 -3.6199 -6.0962 22.4768 37.5750 -13.3600 -20.6405 -43.5385 6.0874 -4.8291 17.5812 -18.7281 -17.9366 27.5546 -104.0574 18.6635 -9.5196 -46.0034 -0.0000 -13.8246 8.1854 12.5460 -33.5120 33.1476 -0.0000 26.2537 -25.7758 -3.2437 -27.6702 -1.5466 -10.8569 15.7996 9.6772 -0.0000 22.9499 1.4758 -7.9280 10.5805 32.8623 0.0000 -24.3270 -136.7718 -9.1033 45.7983 3.9043 0.0000 0.0000 46.1470 16.9796 -20.3369 10.7302 -0.0000 -0.0000 -5.4031 -0.7848 -27.9474 33.5423 0.0000 -0.0000 -27.6421 -23.8489 -25.6627 0.4744 0.0000 0.0000
 -7.3324 33.3662 -3.6281 -6.1094 22.5170 37.5847 -13.3218 -20.6168 -43.5346 6.0920 -4.7935 17.5342 -18.7310 -17.9186 27.5638 -104.0868 18.6315 -9.5207 -46.0034 -0.0000 -13.8666 8.2569 12.5873 -33.6593 33.1476 -0.0000 26.2537 -25.7771 -3.2057 -27.6429 -1.5681 -10.9357 15.7804 9.8202 -0.0000 22.9371 1.4646 -7.9547 10.4672 32.8623 0.0000 -24.3270 -136.7750 -9.1196 45.8337 3.8973 0.0000 -0.0000 46.0842 17.0789 -20.4623 11.2707 -0.0000 0.0000 -5.4624 -0.8137 -27.9514 33.6034 -0.0000 -0.0000 -27.6691 -23.8599 -25.6482 0.4680 -0.0000 0.0000
 -7.3403 33.3619 -3.6341 -6.1365 22.5491 37.5957 -13.2916 -20.5974 -43.5246 6.1494 -4.7409 17.4276 -18.6863 -17.8546 27.5541 -104.0811 18.5573 -9.5574 -45.9569 -0.0000 -13.9050 8.1887 12.5601 -33.4937 33.1476 -0.0000 26.2537 -25.7498 -3.1895 -27.6162 -1.7026 -10.9057 15.7361 9.7005 -0.0000 23.0002 1.4750 -8.0054 10.4750 32.8623 0.0000 -24.3270 -136.7881 -9.1251 45.8691 3.9047 -0.0000 -0.0000 46.1090 17.0523 -20.3983 10.9494 -0.0000 -0.0000 -5.4932 -0.8542 -27.9494 33.6386 0.0000 0.0000 -27.6893 -23.8560 -25.6458 0.4828 -0.0000 -0.0000
 -7.3461 33.3567 -3.6410 -6.1729 22.5846 37.6201 -13.2491 -20.5922 -43.5572 6.1797 -4.7124 17.4465 -18.7041 -17.8448 27.6166 -104.1111 18.5910 -9.5633 -46.0043 -0.0000 -13.9006 8.2254 12.5879 -33.5557 33.1476 -0.0000 26.2537 -25.8215 -3.1253 -27.6558 -1.7832 -10.9675 15.8208 9.7384 -0.0000 23.1499 1.4475 -7.7456 10.6195 32.8623 0.0000 -24.3270 -136.7253 -9.1710 45.9110 3.8889 -0.0000 0.0000 46.1381 17.1006 -20.3625 11.0973 0.0000 0.0000 -5.5195 -0.9084 -27.9682 33.6782 -0.0000 -0.0000 -27.7318 -23.8153 -25.6283 0.5144 0.0000 0.0000
 -7.3530 33.3525 -3.6448 -6.2238 22.6238 37.6445 -13.1851 -20.5660 -43.5563 6.2387 -4.7332 17.3553 -18.7210 -17.8455 27.6126 -104.1058 18.5683 -9.5769 -45.9918 -0.0000 -13.9326 8.2360 12.4896 -33.7942 33.1476 -0.0000 26.2537 -25.8251 -3.1371 -27.6481 -1.7075 -10.9064 15.8116 9.6591 -0.0000 23.1177 1.4634 -7.8866 10.5465 32.8623 0.0000 -24.3270 -136.7502 -9.1504 45.9328 3.9115 -0.0000 -0.0000 46.1080 17.1134 -20.3376 10.9749 0.0000 0.0000 -5.5370 -1.0039 -27.9816 33.6944 -0.0000 0.0000 -27.7618 -23.7835 -25.6205 0.5380 0.0000 0.0000
 -7.3611 33.3488 -3.6498 -6.2514 22.6629 37.6506 -13.1538 -20.5335 -43.5492 6.3257 -4.7582 17.2626 -18.7156 -17.8375 27.6107 -104.0638 18.5182 -9.5924 -45.9288 -0.0000 -13.9915 8.1773 12.5494 -33.4785 33.1476 -0.0000 26.2537 -25.8255 -3.1222 -27.6552 -1.7414 -10.9485 15.8396 9.7295 -0.0000 23.2162 1.4856 -7.9330 10.6427 32.8623 0.0000 -24.3270 -136.7410 -9.1811 45.9684 3.9223 0.0000 -0.0000 46.1152 17.1197 -20.3365 10.9955 -0.0000 0.0000 -5.5547 -1.0498 -27.9739 33.7116 -0.0000 0.0000 -27.7857 -23.7655 -25.6164 0.5603 -0.0000 -0.0000
 -7.3687 33.3442 -3.6550 -6.2749 22.7149 37.6520 -13.1385 -20.5216 -43.5605 6.3810 -4.7755 17.2345 -18.7573 -17.8557 27.6586 -104.0396 18.5656 -9.5902 -45.9843 -0.0000 -13.9502 8.1957 12.6349 -33.3624 33.1476 -0.0000 26.2537 -25.8315 -3.0962 -27.6419 -1.5624 -10.9196 15.8989 9.7670 -0.0000 23.0183 1.4755 -7.8641 10.6616 32.8623 0.0000 -24.3270 -136.7737 -9.2000 45.9861 3.9530 0.0000 0.0000 46.1533 17.1635 -20.3106 10.5667 0.0000 0.0000 -5.5823 -1.0825 -27.9608 33.7473 0.0000 -0.0000 -27.8046 -23.7666 -25.5791 0.5323 -0.0000 0.0000
 -7.3778 33.3410 -3.6574 -6.3136 22.7627 37.6485 -13.0978 -20.4995 -43.5638 6.4558 -4.8095 17.2053 -18.7581 -17.8543 27.6810 -104.1020 18.5736 -9.6120 -45.9938 -0.0000 -13.8712 8.1967 12.6176 -33.4012 33.1476 -0.0000 26.2537 -25.8398 -3.1001 -27.6671 -1.5240 -10.9177 15.9844 9.7779 -0.0000 22.9146 1.4992 -7.7589 10.9714 32.8623 0.0000 -24.3270 -136.7821 -9.2152 46.0012 3.9603 -0.0000 0.0000 46.1747 17.1448 -20.2445 10.6226 0.0000 0.0000 -5.6106 -1.1741 -27.9488 33.7626 0.0000 0.0000 -27.8095 -23.7117 -25.5630 0.5153 -0.0000 -0.0000
 -7.3870 33.3371 -3.6626 -6.3269 22.8230 37.6370 -13.0879 -20.4648 -43.5486 6.5301 -4.8402 17.1209 -18.7498 -17.8403 27.6911 -104.1503 18.5838 -9.6311 -46.0073 -0.0000 -13.8504 8.2144 12.6353 -33.4226 33.1476 -0.0000 26.2537 -25.8418 -3.1029 -27.6649 -1.5978 -10.9479 15.9951 9.7770 -0.0000 23.0427 1.4941 -7.7864 10.8974 32.8623 0.0000 -24.3270 -136.7921 -9.2493 46.0130 3.9707 0.0000 0.0000 46.1566 17.2651 -20.3531 10.5856 -0.0000 0.0000 -5.6096 -1.1202 -27.8957 33.8068 0.0000 -0.0000 -27.8270 -23.8098 -25.5561 0.4942 0.0000 -0.0000
 -7.3972 33.3343 -3.6652 -6.3496 22.8802 37.6277 -13.0770 -20.4284 -43.5462 6.6085 -4.8459 17.0704 -18.7552 -17.8330 27.7090 -104.1815 18.6122 -9.6639 -46.0289 -0.0000 -13.9063 8.2466 12.6756 -33.4446 33.1476 -0.0000 26.2537 -25.8207 -3.1156 -27.6921 -1.6538 -10.9667 16.0717 9.7478 -0.0000 23.0563 1.4776 -7.6827 10.9207 32.8623 0.0000 -24.3270 -136.6964 -9.3538 46.0599 3.9390 0.0000 0.0000 46.2222 17.1600 -20.1761 10.5098 -0.0000 -0.0000 -5.6162 -1.1126 -27.8524 33.8446 0.0000 0.0000 -27.8364 -23.8615 -25.5329 0.5056 0.0000 -0.0000
 -7.4054 33.3322 -3.6677 -6.3825 22.9456 37.6271 -13.0661 -20.4035 -43.5341 6.6741 -4.8345 16.9767 -18.8029 -17.8617 27.6902 -104.1632 18.6311 -9.6656 -46.0904 -0.0000 -13.8166 8.2349 12.5310 -33.7044 33.1476 -0.0000 26.2537 -25.8070 -3.1357 -27.7520 -1.5043 -10.8940 16.1778 9.6738 -0.0000 22.9922 1.4844 -7.6628 10.9978 32.8623 0.0000 -24.3270 -136.7554 -9.3581 46.0473 3.9985 -0.0000 -0.0000 46.1539 17.2660 -20.2361 10.4851 -0.0000 -0.0000 -5.6219 -1.1430 -27.8246 33.8575 -0.0000 0.0000 -27.8426 -23.9149 -25.4293 0.4698 0.0000 0.0000
 -7.4142 33.3295 -3.6715 -6.4043 23.0292 37.6147 -13.0782 -20.3866 -43.5078 6.7272 -4.7984 16.8719 -18.8617 -17.9059 27.6428 -104.0686 18.6154 -9.6657 -46.1075 -0.0000 -13.8110 8.2207 12.5213 -33.6783 33.1476 -0.0000 26.2537 -25.7999 -3.1504 -27.7602 -1.4450 -10.8514 16.1849 9.6125 -0.0000 22.9889 1.4892 -7.5596 11.1781 32.8623 0.0000 -24.3270 -136.6973 -9.4141 46.0543 3.9575 -0.0000 -0.0000 46.0672 17.3307 -20.2256 10.9734 -0.0000 -0.0000 -5.6511 -1.1869 -27.7947 33.8810 -0.0000 0.0000 -27.8398 -23.9345 -25.3503 0.4236 0.0000 0.0000
